<?xml version="1.0" encoding="UTF-8" standalone="no"?>
<svg
   id="Camada_2"
   data-name="Camada 2"
   viewBox="0 0 985.28 297.9"
   version="1.1"
   xmlns="http://www.w3.org/2000/svg"
   xmlns:svg="http://www.w3.org/2000/svg">
  <defs
     id="defs1" />
  <g
     id="Camada_1-2"
     data-name="Camada 1">
    <path
       d="m 936.06,249.94 c -5.12,-4.54 0.76,-7.39 0.76,-14.23 0,-6.84 0.86,-6.84 0.86,-13.68 0,-6.84 0.83,-6.84 0.83,-13.68 0,-6.84 -0.16,-6.84 -0.16,-13.68 0,-6.84 -1.8,-6.84 -1.8,-13.68 0,-6.84 1.92,-6.84 1.92,-13.68 0,-6.84 -1.93,-6.84 -1.93,-13.68 0,-6.84 0.62,-6.84 0.62,-13.69 0,-6.85 -5.37,-8.73 -0.26,-13.28 5.76,-5.12 7.34,0.89 15.05,0.89 7.71,0 7.71,-0.13 15.41,-0.13 7.7,0 9.02,-5.58 14.78,-0.47 5.12,4.54 0.07,6.13 0.07,12.97 0,6.84 -0.7,6.84 -0.7,13.68 0,6.84 3.17,6.84 3.17,13.68 0,6.84 -3.29,6.84 -3.29,13.68 0,6.84 2.26,6.84 2.26,13.68 0,6.84 -0.25,6.84 -0.25,13.68 0,6.84 0.23,6.84 0.23,13.68 0,6.84 -2.67,6.84 -2.67,13.69 0,6.85 5.84,7.92 0.73,12.46 -5.76,5.12 -6.62,1.87 -14.32,1.87 -7.7,0 -7.48,-0.44 -15,1.22 -8.23,1.83 -10.55,3.8 -16.31,-1.32 z"
       id="path24"
       style="fill:#db7a1e;fill-opacity:1" />
    <path
       d="m 936.03,109.53 c -5.45,-5.45 0.79,-8.22 0.79,-15.93 0,-7.71 0.86,-7.71 0.86,-15.41 0,-7.7 -5.19,-8.57 0.26,-14.02 5.45,-5.45 6.32,0.42 14.02,0.42 7.7,0 7.71,-1.8 15.41,-1.8 7.7,0 8.6,-4.09 14.05,1.36 5.45,5.45 1.36,6.34 1.36,14.05 0,7.71 -0.62,7.71 -0.62,15.41 0,7.7 5.68,9.58 0.23,15.03 -5.45,5.45 -7.32,-0.92 -15.02,-0.92 -7.7,0 -8.17,-1.57 -15.68,0.16 -8.29,1.91 -10.22,7.11 -15.67,1.66 z"
       id="path23"
       style="fill:#db7a1e;fill-opacity:1" />
    <path
       id="path21"
       d="M 820.70117 63.492188 C 819.45039 63.511875 818.21273 63.605312 816.99023 63.820312 C 811.96023 64.700312 807.54953 67.390859 802.76953 69.130859 C 797.98953 70.870859 792.43078 70.960234 788.05078 73.490234 C 783.67078 76.020234 780.94984 81.009766 777.08984 84.259766 C 773.22984 87.509766 768.08984 89.550156 764.83984 93.410156 C 761.59984 97.270156 759.37914 102.09945 756.86914 106.43945 C 754.35914 110.77945 751.9893 115.41938 750.2793 120.10938 C 748.5693 124.79937 749.14906 130.22914 748.28906 135.11914 C 747.42906 140.00914 744.30078 144.78016 744.30078 149.91016 C 744.30078 155.04016 746.37 159.85086 747.25 164.88086 C 748.13 169.91086 749.69945 174.50906 751.43945 179.28906 C 753.17945 184.06906 755.1907 188.50063 757.7207 192.89062 C 760.2507 197.28062 762.44945 201.82945 765.68945 205.68945 C 768.92945 209.54945 772.40977 213.2893 776.25977 216.5293 C 780.10977 219.7693 785.19906 221.22047 789.53906 223.73047 C 793.87906 226.24047 797.31953 231.01094 802.01953 232.71094 C 806.71953 234.41094 812.53969 232.56992 817.42969 233.41992 C 822.31969 234.26992 827.11016 236.18945 832.16016 236.18945 C 837.21016 236.18945 842.19953 236.40031 847.01953 235.57031 C 851.97953 234.72031 856.93062 234.00055 861.64062 232.31055 C 866.35063 230.62055 871.50984 229.47953 875.83984 227.01953 C 880.16984 224.55953 883.72055 220.58969 887.56055 217.42969 C 891.40055 214.26969 893.32055 209.2207 896.56055 205.4707 C 899.80055 201.7207 902.4207 197.78078 904.9707 193.55078 C 907.5207 189.32078 911.53008 184.97055 913.33008 180.31055 C 905.66008 177.81055 905.00945 180.49023 896.93945 180.49023 C 888.86945 180.49023 888.88055 180.24023 880.81055 180.24023 C 872.74055 180.24023 872.86063 181.27023 864.89062 182.49023 C 862.10062 185.40023 857.69 184.95977 854.25 187.00977 C 850.81 189.05977 848.25922 193.54961 844.44922 194.59961 C 840.63922 195.64961 836.29039 195.55078 832.15039 195.55078 C 827.61039 195.55078 823.09055 195.27047 818.81055 193.98047 C 814.53055 192.69047 810.18023 190.87016 806.49023 188.41016 C 802.80023 185.95016 799.13984 182.79039 796.33984 179.40039 C 793.53984 176.01039 792.06961 170.86023 790.34961 166.74023 C 797.02961 164.52023 797.56961 166.64062 804.59961 166.64062 C 811.62961 166.64062 811.63992 167.25977 818.66992 167.25977 C 825.69992 167.25977 825.69047 165.33008 832.73047 165.33008 C 839.77047 165.33008 839.77078 167.25 846.80078 167.25 C 853.83078 167.25 853.81938 165.44922 860.85938 165.44922 C 867.89937 165.44922 867.89969 165.28906 874.92969 165.28906 C 881.95969 165.28906 881.96023 166.11914 888.99023 166.11914 C 896.02023 166.11914 896.01078 166.98047 903.05078 166.98047 C 910.09078 166.98047 910.76914 170.36945 917.36914 167.93945 L 917.38086 167.91016 C 918.52086 162.30016 917.69922 155.82086 917.69922 149.88086 C 917.69922 144.74086 918.1393 139.75914 917.2793 134.86914 C 916.3993 129.83914 914.46977 125.24078 912.75977 120.55078 C 911.01977 115.78078 910.49094 110.51086 907.96094 106.13086 C 905.43094 101.75086 900.51953 99.129531 897.26953 95.269531 C 894.01953 91.409531 891.69961 86.779062 887.84961 83.539062 C 883.99961 80.299062 879.0607 78.709219 874.7207 76.199219 C 870.3807 73.689219 866.7407 69.769297 861.9707 68.029297 C 857.2807 66.319297 851.80016 67.170312 846.91016 66.320312 C 842.02016 65.470313 837.30992 64.039062 832.16992 64.039062 C 828.31492 64.039062 824.45352 63.433125 820.70117 63.492188 z M 832.14062 103.0293 C 836.69063 103.0293 841.4993 103.59086 845.7793 104.88086 C 850.0593 106.17086 854.0893 109.00094 857.7793 111.46094 C 861.4693 113.92094 864.36016 117.69984 867.16016 121.08984 C 869.96016 124.47984 871.81906 127.76086 873.53906 131.88086 L 873.53906 131.89062 C 866.95906 134.12062 866.73961 133.64062 859.84961 133.14062 C 852.92961 132.63062 852.93977 133.5293 846.00977 133.5293 C 839.07977 133.5293 839.08063 133.75977 832.14062 133.75977 C 825.20062 133.75977 825.18977 133.89062 818.25977 133.89062 C 811.32977 133.89062 811.33063 133.13086 804.39062 133.13086 C 797.45063 133.13086 796.89031 135.38992 790.32031 133.16992 C 792.04031 129.05992 794.52984 124.67953 797.33984 121.26953 C 800.14984 117.85953 802.42055 113.23078 806.06055 110.80078 C 809.70055 108.37078 814.94031 108 819.07031 106.75 C 823.20031 105.5 827.59063 103.0293 832.14062 103.0293 z "
       style="fill:#db7a1e;fill-opacity:1" />
    <path
       d="m 983.11,49.47 c -5.1,5.33 -7.9,-0.78 -15.27,-0.78 -7.37,0 -7.37,-0.86 -14.75,-0.86 -7.38,0 -7.37,-0.83 -14.74,-0.83 -7.37,0 -7.37,0.16 -14.75,0.16 -7.38,0 -7.37,1.8 -14.74,1.8 -7.37,0 -7.37,-1.92 -14.74,-1.92 -7.37,0 -7.37,1.93 -14.75,1.93 -7.38,0 -7.37,-0.62 -14.75,-0.62 -7.38,0 -7.37,0.07 -14.75,0.07 -7.38,0 -7.37,-0.76 -14.75,-0.76 -7.38,0 -7.37,0.13 -14.75,0.13 -7.38,0 -7.37,0.23 -14.75,0.23 -7.38,0 -7.37,0.39 -14.74,0.39 -7.37,0 -7.38,-0.7 -14.75,-0.7 -7.37,0 -7.37,3.17 -14.75,3.17 -7.38,0 -7.38,-3.29 -14.76,-3.29 -7.38,0 -8.85,-3.12 -14.15,2.01 -5.14,4.98 0.02,6.53 0.02,13.68 0,7.15 0.23,7.15 0.23,14.31 0,7.16 -2.67,7.15 -2.67,14.31 0,7.16 0.18,7.16 0.18,14.31 0,7.15 2.28,7.16 2.28,14.31 0,7.15 1.27,7.16 1.27,14.31 0,7.15 -1.12,7.16 -1.12,14.31 0,7.15 -0.57,7.16 -0.57,14.31 0,7.15 -0.65,7.16 -0.65,14.31 0,7.15 -1.5,7.16 -1.5,14.31 0,7.15 3.3,7.16 3.3,14.32 0,7.16 -2.86,7.16 -2.86,14.31 0,7.15 1.74,7.16 1.74,14.32 0,7.16 5.03,9.49 -0.21,14.37 -5.65,5.25 -7.75,-0.81 -15.46,-0.81 -7.71,0 -7.71,-0.07 -15.41,-0.07 -7.7,0 -9.43,5.7 -15.08,0.46 -5.24,-4.87 -1.49,-6.79 -1.49,-13.95 0,-7.16 2.71,-7.15 2.71,-14.31 0,-7.16 -1.97,-7.15 -1.97,-14.31 0,-7.16 0.19,-7.16 0.19,-14.31 0,-7.15 -0.96,-7.16 -0.96,-14.31 0,-7.15 2.2,-7.16 2.2,-14.31 0,-7.15 -2.53,-7.16 -2.53,-14.31 0,-7.15 2.29,-7.16 2.29,-14.31 0,-7.15 -1.46,-7.16 -1.46,-14.31 0,-7.15 1.54,-7.16 1.54,-14.31 0,-7.15 1.01,-7.16 1.01,-14.32 0,-7.16 -2.25,-7.16 -2.25,-14.31 0,-7.15 2.02,-7.16 2.02,-14.32 0,-7.16 3.55,-9.37 -1.56,-14.38 -5.11,-5.01 -7.37,-1.67 -14.68,-1.67 -7.31,0 -7.31,2.53 -14.62,2.53 -7.31,0 -7.31,-1.76 -14.62,-1.76 -7.31,0 -7.31,0.67 -14.62,0.67 -7.31,0 -7.31,-0.87 -14.62,-0.87 -7.31,0 -7.31,0.61 -14.62,0.61 -7.31,0 -7.31,1.6 -14.62,1.6 -7.31,0 -7.31,-2.52 -14.62,-2.52 -7.31,0 -7.31,2.83 -14.62,2.83 -7.31,0 -7.31,-1.09 -14.62,-1.09 -7.31,0 -7.31,-1.72 -14.62,-1.72 -7.31,0 -7.31,1.15 -14.62,1.15 -7.31,0 -7.31,-1.22 -14.62,-1.22 -7.31,0 -7.31,0.44 -14.62,0.44 -7.31,0 -7.31,0.51 -14.62,0.51 -7.31,0 -7.31,0.68 -14.62,0.68 -7.31,0 -7.31,1.59 -14.62,1.59 -7.31,0 -7.31,-0.64 -14.62,-0.64 -7.31,0 -7.31,-2.75 -14.62,-2.75 -7.31,0 -7.31,3.19 -14.62,3.19 -7.31,0 -7.31,-3.17 -14.62,-3.17 -7.31,0 -7.31,3.46 -14.62,3.46 -7.31,0 -7.31,-0.24 -14.62,-0.24 -7.31,0 -7.31,-0.14 -14.63,-0.14 -7.32,0 -7.31,-1.52 -14.62,-1.52 -7.31,0 -7.31,1.88 -14.63,1.88 -7.32,0 -7.31,-2.3 -14.62,-2.3 -7.31,0 -7.32,0.87 -14.63,0.87 -7.31,0 -10.96,6.26 -16,0.96 -5.31,-5.59 -0.28,-9 -0.28,-16.71 0,-7.71 2.79,-7.71 2.79,-15.41 0,-7.7 -6.36,-9.74 -1.1,-15.37 4.92,-5.26 7.15,-1.4 14.36,-1.4 7.21,0 7.21,2.82 14.41,2.82 7.2,0 7.21,-0.42 14.42,-0.42 7.21,0 7.21,-1.68 14.42,-1.68 7.21,0 7.21,0.51 14.41,0.51 7.2,0 7.21,2.02 14.42,2.02 7.21,0 7.21,-1.97 14.42,-1.97 7.21,0 7.21,-1.46 14.42,-1.46 7.21,0 7.21,1.61 14.42,1.61 7.21,0 7.21,-1.89 14.42,-1.89 7.21,0 7.21,2.06 14.42,2.06 7.21,0 7.21,0.75 14.42,0.75 7.21,0 7.21,-2.53 14.42,-2.53 7.21,0 7.21,2.49 14.42,2.49 7.21,0 7.21,-2.83 14.42,-2.83 7.21,0 7.21,3.18 14.42,3.18 7.21,0 7.21,0.66 14.42,0.66 7.21,0 7.21,-1.69 14.42,-1.69 7.21,0 7.21,-1.94 14.42,-1.94 7.21,0 7.21,-0.03 14.42,-0.03 7.21,0 7.21,3.29 14.42,3.29 7.21,0 7.21,-2.65 14.42,-2.65 7.21,0 7.21,1.27 14.42,1.27 7.21,0 7.21,0.59 14.42,0.59 7.21,0 7.21,-0.16 14.42,-0.16 7.21,0 7.21,-0.56 14.42,-0.56 7.21,0 7.21,-0.69 14.42,-0.69 7.21,0 7.21,0.02 14.42,0.02 7.21,0 7.21,-1.23 14.42,-1.23 7.21,0 7.21,1.16 14.42,1.16 7.21,0 7.21,0.87 14.42,0.87 7.21,0 7.21,-1.57 14.42,-1.57 7.21,0 7.21,-0.58 14.42,-0.58 7.21,0 7.21,0.08 14.42,0.08 7.21,0 7.21,1.52 14.42,1.52 7.21,0 7.21,0.74 14.42,0.74 7.21,0 7.21,-1.33 14.42,-1.33 7.21,0 7.21,1.21 14.42,1.21 7.21,0 7.21,1.49 14.42,1.49 7.21,0 7.21,-1.43 14.42,-1.43 7.21,0 7.21,-0.12 14.42,-0.12 7.21,0 7.21,0.15 14.42,0.15 7.21,0 7.21,-1.08 14.42,-1.08 7.21,0 7.21,1.11 14.42,1.11 7.21,0 7.21,0.68 14.43,0.68 7.22,0 7.21,-2.72 14.42,-2.72 7.21,0 7.21,3.2 14.43,3.2 7.22,0 7.21,-2.59 14.42,-2.59 7.21,0 7.22,-0.06 14.43,-0.06 7.21,0 9.03,-3.73 13.96,1.54 5.27,5.63 -1,7.27 -1,14.98 0,7.71 -2.19,8.34 -0.48,15.86 1.88,8.27 7.8,9.91 2.48,15.48 z"
       id="path20"
       style="fill:#db7a1e;fill-opacity:1" />
    <path
       id="path18"
       d="M 572.25195 63.482422 C 570.99461 63.503047 569.73797 63.600313 568.48047 63.820312 C 563.45047 64.700312 559.03977 67.390859 554.25977 69.130859 C 549.47977 70.870859 543.91906 70.960234 539.53906 73.490234 C 535.15906 76.020234 532.44008 81.009766 528.58008 84.259766 C 524.72008 87.509766 519.57008 89.550156 516.33008 93.410156 C 513.09008 97.270156 510.86937 102.09945 508.35938 106.43945 C 505.84938 110.77945 503.47953 115.41938 501.76953 120.10938 C 500.05953 124.79937 500.6393 130.22914 499.7793 135.11914 C 498.9193 140.00914 495.78906 144.78016 495.78906 149.91016 C 495.78906 155.04016 497.86023 159.85086 498.74023 164.88086 C 499.62023 169.91086 501.18969 174.50906 502.92969 179.28906 C 504.66969 184.06906 506.68094 188.50063 509.21094 192.89062 C 511.74094 197.28062 513.93969 201.82945 517.17969 205.68945 C 520.41969 209.54945 523.89 213.2793 527.75 216.5293 C 531.6 219.7693 536.6893 221.22047 541.0293 223.73047 C 545.3693 226.24047 548.80977 231.01094 553.50977 232.71094 C 558.20977 234.41094 564.02992 232.56992 568.91992 233.41992 C 573.80992 234.26992 578.60039 236.18945 583.65039 236.18945 C 588.70039 236.18945 593.54977 236.42031 598.50977 235.57031 C 603.46977 234.72031 608.42086 234.00055 613.13086 232.31055 C 617.84086 230.62055 623.00008 229.47953 627.33008 227.01953 C 631.66008 224.55953 635.21078 220.58969 639.05078 217.42969 C 642.89078 214.26969 644.81078 209.2207 648.05078 205.4707 C 651.29078 201.7207 653.91094 197.78078 656.46094 193.55078 C 659.01094 189.32078 663.02031 184.97055 664.82031 180.31055 C 657.15031 177.81055 656.49969 180.49023 648.42969 180.49023 C 640.35969 180.49023 640.37078 180.24023 632.30078 180.24023 C 624.23078 180.24023 624.35086 181.27023 616.38086 182.49023 C 613.59086 185.40023 609.18023 184.95977 605.74023 187.00977 C 602.30023 189.05977 599.74945 193.54961 595.93945 194.59961 C 592.12945 195.64961 587.78062 195.55078 583.64062 195.55078 C 579.10062 195.55078 574.44078 195.23047 570.30078 193.98047 C 566.02078 192.69047 561.67047 190.87016 557.98047 188.41016 C 554.29047 185.95016 550.63008 182.79039 547.83008 179.40039 C 545.03008 176.01039 543.55984 170.86023 541.83984 166.74023 C 548.51984 164.52023 549.05984 166.64062 556.08984 166.64062 C 563.11984 166.64062 563.13016 167.25977 570.16016 167.25977 C 577.19016 167.25977 577.1807 165.33008 584.2207 165.33008 C 591.2607 165.33008 591.25906 167.25 598.28906 167.25 C 605.31906 167.25 605.30961 165.44922 612.34961 165.44922 C 619.38961 165.44922 619.38992 165.28906 626.41992 165.28906 C 633.44992 165.28906 633.45047 166.11914 640.48047 166.11914 C 647.51047 166.11914 647.49906 166.98047 654.53906 166.98047 C 661.57906 166.98047 662.25937 170.36945 668.85938 167.93945 L 668.86914 167.91016 C 670.00914 162.30016 669.18945 155.82086 669.18945 149.88086 C 669.18945 144.74086 669.64953 139.89914 668.76953 134.86914 C 667.88953 129.83914 665.99 125.32078 664.25 120.55078 C 662.51 115.78078 661.97922 110.51086 659.44922 106.13086 C 656.91922 101.75086 651.99977 99.119531 648.75977 95.269531 C 645.50977 91.409531 643.18984 86.779062 639.33984 83.539062 C 635.48984 80.299062 630.55094 78.709219 626.21094 76.199219 C 621.87094 73.689219 618.15094 69.739297 613.46094 68.029297 C 608.77094 66.319297 603.29039 67.170312 598.40039 66.320312 C 593.51039 65.470313 588.80016 64.039062 583.66016 64.039062 C 579.80516 64.039062 576.02398 63.420547 572.25195 63.482422 z M 583.63086 103.0293 C 588.18086 103.0293 592.98953 103.59086 597.26953 104.88086 C 601.54953 106.17086 605.57953 109.00094 609.26953 111.46094 C 612.95953 113.92094 615.85039 117.69984 618.65039 121.08984 C 621.45039 124.47984 623.3093 127.76086 625.0293 131.88086 L 625.0293 131.89062 C 618.4493 134.12062 618.25984 133.65062 611.33984 133.14062 C 604.41984 132.63062 604.43 133.5293 597.5 133.5293 C 590.57 133.5293 590.57086 133.75977 583.63086 133.75977 C 576.69086 133.75977 576.68 133.89062 569.75 133.89062 C 562.82 133.89062 562.82086 133.13086 555.88086 133.13086 C 548.94086 133.13086 548.38055 135.38992 541.81055 133.16992 C 543.53055 129.05992 546.02008 124.67953 548.83008 121.26953 C 551.64008 117.85953 553.91078 113.23078 557.55078 110.80078 C 561.19078 108.37078 566.43055 108 570.56055 106.75 C 574.69055 105.5 579.08086 103.0293 583.63086 103.0293 z "
       style="fill:#db7a1e;fill-opacity:1" />
    <path
       d="m 47.08,257.73 c 5.56,5.14 7.07,0.81 14.64,0.81 7.57,0 7.57,0.86 15.14,0.86 7.57,0 7.57,0.83 15.14,0.83 7.57,0 7.57,-0.16 15.14,-0.16 7.57,0 7.57,-1.8 15.14,-1.8 7.57,0 7.57,1.92 15.15,1.92 7.58,0 9.28,-6.72 15.14,-1.93 4.79,3.9 -0.62,6.17 -0.62,12.35 0,6.18 0.07,6.18 0.07,12.36 0,6.18 4.5,7.43 -0.28,11.35 -5.82,4.78 -6.71,-0.17 -14.24,-0.17 -7.53,0 -7.53,0.23 -15.06,0.23 -7.53,0 -7.53,0.39 -15.06,0.39 -7.53,0 -7.53,-0.7 -15.07,-0.7 -7.54,0 -7.53,3.17 -15.07,3.17 -7.54,0 -7.53,-3.29 -15.06,-3.29 -7.53,0 -7.53,2.26 -15.07,2.26 -7.53,0 -7.53,-0.25 -15.07,-0.25 -7.54,0 -7.54,0.23 -15.07,0.23 -7.53,0 -8.49,3.24 -13.78,-2.13 -5.37,-5.45 0.35,-6.37 0.35,-14.02 0,-7.65 -2.28,-7.65 -2.28,-15.3 0,-7.65 -1.26,-7.64 -1.26,-15.28 0,-7.64 1.12,-7.65 1.12,-15.3 0,-7.65 0.57,-7.65 0.57,-15.3 0,-7.65 0.65,-7.65 0.65,-15.3 0,-7.65 -4.38,-8.48 0.95,-13.96 5.33,-5.48 6.07,-2.72 13.51,-2.72 7.44,0 7.45,2.86 14.89,2.86 7.44,0 9.64,-6.77 15.07,-1.67 5.1,4.79 -0.11,7.19 -0.11,14.18 0,6.99 -0.82,7 -0.82,14 0,7 -0.07,7 -0.07,14 0,7 1.74,7.04 0.34,13.91 -1.4,6.87 -4.16,8.81 0.98,13.57 z"
       id="path17"
       style="fill:#db7a1e;fill-opacity:1" />
    <path
       d="m 475.09,257.74 c 5.22,5.04 6.75,0.8 14,0.8 7.25,0 7.26,0.86 14.51,0.86 7.25,0 7.26,0.83 14.51,0.83 7.25,0 7.26,-0.16 14.51,-0.16 7.25,0 7.26,-1.8 14.51,-1.8 7.25,0 7.26,1.92 14.51,1.92 7.25,0 7.26,-1.93 14.51,-1.93 7.25,0 7.26,0.62 14.51,0.62 7.25,0 7.26,-0.07 14.51,-0.07 7.25,0 7.26,0.76 14.51,0.76 7.25,0 7.26,-0.13 14.51,-0.13 7.25,0 7.26,-0.23 14.51,-0.23 7.25,0 7.26,-0.39 14.51,-0.39 7.25,0 7.26,0.7 14.51,0.7 7.25,0 7.26,-3.17 14.51,-3.17 7.25,0 7.26,3.29 14.51,3.29 7.25,0 7.26,-2.26 14.51,-2.26 7.25,0 7.26,0.25 14.51,0.25 7.25,0 7.26,-0.23 14.51,-0.23 7.25,0 7.25,2.67 14.51,2.67 7.26,0 7.26,-0.18 14.51,-0.18 7.25,0 7.26,-2.28 14.51,-2.28 7.25,0 7.26,-1.27 14.51,-1.27 7.25,0 7.26,1.12 14.51,1.12 7.25,0 7.26,0.57 14.51,0.57 7.25,0 7.26,0.65 14.52,0.65 7.26,0 7.26,1.5 14.51,1.5 7.25,0 7.26,-3.3 14.52,-3.3 7.26,0 7.26,2.86 14.52,2.86 7.26,0 7.26,-1.74 14.52,-1.74 7.26,0 7.26,0.19 14.51,0.19 7.25,0 7.26,0.82 14.52,0.82 7.26,0 7.26,0.07 14.51,0.07 7.25,0 7.26,-0.33 14.52,-0.33 7.26,0 9.74,-6.08 15.27,-1.38 4.71,4 -2.3,7.06 -2.3,13.23 0,6.17 1.97,6.18 1.97,12.36 0,6.18 4.44,8.53 -0.27,12.53 -5.54,4.71 -7.41,1.02 -14.68,1.02 -7.27,0 -7.27,-2.2 -14.54,-2.2 -7.27,0 -7.27,2.53 -14.54,2.53 -7.27,0 -7.27,-2.29 -14.54,-2.29 -7.27,0 -7.27,1.46 -14.54,1.46 -7.27,0 -7.27,-1.54 -14.54,-1.54 -7.27,0 -7.27,-1.01 -14.54,-1.01 -7.27,0 -7.27,2.25 -14.54,2.25 -7.27,0 -7.27,-2.02 -14.54,-2.02 -7.27,0 -7.27,1.54 -14.54,1.54 -7.27,0 -7.27,-1.64 -14.54,-1.64 -7.27,0 -7.27,2.53 -14.54,2.53 -7.27,0 -7.27,-1.76 -14.54,-1.76 -7.27,0 -7.27,0.67 -14.54,0.67 -7.27,0 -7.27,-0.87 -14.54,-0.87 -7.27,0 -7.27,0.61 -14.54,0.61 -7.27,0 -7.27,1.6 -14.54,1.6 -7.27,0 -7.27,-2.52 -14.54,-2.52 -7.27,0 -7.27,2.83 -14.54,2.83 -7.27,0 -7.27,-1.09 -14.54,-1.09 -7.27,0 -7.27,-1.72 -14.54,-1.72 -7.27,0 -7.27,1.15 -14.54,1.15 -7.27,0 -7.27,-1.22 -14.54,-1.22 -7.27,0 -7.27,0.44 -14.54,0.44 -7.27,0 -7.27,0.51 -14.54,0.51 -7.27,0 -7.27,0.68 -14.54,0.68 -7.27,0 -7.27,1.59 -14.54,1.59 -7.27,0 -7.27,-0.64 -14.54,-0.64 -7.27,0 -7.27,-2.75 -14.55,-2.75 -7.28,0 -7.27,3.19 -14.54,3.19 -7.27,0 -7.27,-3.17 -14.55,-3.17 -7.28,0 -7.27,3.46 -14.55,3.46 -7.28,0 -7.27,-0.24 -14.55,-0.24 -7.28,0 -7.27,-0.14 -14.54,-0.14 -7.27,0 -7.27,-1.52 -14.55,-1.52 -7.28,0 -7.27,1.88 -14.54,1.88 -7.27,0 -7.28,-2.3 -14.55,-2.3 -7.27,0 -9.65,5.92 -14.79,0.77 -5.14,-5.15 -1.64,-7.52 -1.64,-14.8 0,-7.28 0.24,-7.28 0.24,-14.56 0,-7.28 2.79,-7.28 2.79,-14.57 0,-7.29 -1.08,-7.28 -1.08,-14.56 0,-7.28 -1.42,-7.28 -1.42,-14.56 0,-7.28 2.82,-7.28 2.82,-14.57 0,-7.29 -0.42,-7.28 -0.42,-14.57 0,-7.29 -1.68,-7.28 -1.68,-14.57 0,-7.29 0.51,-7.28 0.51,-14.57 0,-7.29 2.02,-7.28 2.02,-14.57 0,-7.29 -1.97,-7.28 -1.97,-14.57 0,-7.29 -1.46,-7.28 -1.46,-14.57 0,-7.29 1.61,-7.29 1.61,-14.57 0,-7.28 -1.89,-7.28 -1.89,-14.57 0,-7.29 2.06,-7.29 2.06,-14.58 0,-7.29 -4.75,-8.76 0.45,-13.86 5.2,-5.1 6.74,-2.24 14.18,-2.24 7.44,0 7.45,2.49 14.89,2.49 7.44,0 10.75,-7.43 16.18,-2.33 5.1,4.79 -2.59,8.36 -2.59,15.36 0,7 -0.66,7 -0.66,14 0,7 1.69,7 1.69,14 0,7 1.94,7 1.94,14 0,7 0.03,7 0.03,14 0,7 -3.29,7 -3.29,14 0,7 2.65,7 2.65,14 0,7 -1.27,7 -1.27,14 0,7 -0.59,7 -0.59,14 0,7 0.16,7 0.16,14 0,7 0.56,7 0.56,14 0,7 0.69,7 0.69,14 0,7 1.35,7.26 -0.03,14.12 -1.38,6.86 -5.11,8.5 -0.08,13.36 z"
       id="path16"
       style="fill:#db7a1e;fill-opacity:1" />
    <path
       id="path14"
       d="M 348.51953 62.990234 C 344.16463 62.96248 339.56781 65.130859 335.07031 65.130859 C 329.93031 65.130859 325.11008 64.049688 320.08008 64.929688 C 315.05008 65.809687 310.11008 66.470938 305.33008 68.210938 C 300.55008 69.950938 295.69055 71.600859 291.31055 74.130859 C 286.93055 76.660859 281.95961 78.779297 278.09961 82.029297 C 274.23961 85.279297 271.39039 89.919531 268.15039 93.769531 C 264.91039 97.619531 263.89086 103.03086 261.38086 107.38086 C 258.87086 111.73086 256.97953 116.19086 255.26953 120.88086 C 253.55953 125.57086 249.68031 129.82094 248.82031 134.71094 C 247.96031 139.60094 247.73047 144.77992 247.73047 149.91992 C 247.73047 155.05992 247.92078 160.10086 248.80078 165.13086 C 249.68078 170.16086 253.13914 174.33937 254.86914 179.10938 C 256.59914 183.87937 255.78055 189.85047 258.31055 194.23047 C 260.84055 198.61047 266.35961 200.97984 269.59961 204.83984 C 272.83961 208.69984 275.82969 212.68016 279.67969 215.91016 C 283.52969 219.14016 287.78992 221.64945 292.16992 224.18945 C 296.50992 226.69945 301.08906 228.60078 305.78906 230.30078 C 310.48906 232.00078 315.3207 233.15953 320.2207 234.01953 C 325.1207 234.87953 329.93055 236.06055 335.06055 236.06055 C 340.19055 236.06055 344.97977 235.56945 350.00977 234.68945 C 355.03977 233.80945 359.9407 233.14039 364.7207 231.40039 C 369.5007 229.66039 373.05922 225.86008 377.44922 223.33008 C 381.83922 220.80008 386.92906 219.56031 390.78906 216.32031 C 394.64906 213.08031 396.86961 208.34047 400.09961 204.48047 C 403.32961 200.62047 405.95094 196.6193 408.46094 192.2793 C 410.97094 187.9393 413.78023 183.86969 415.49023 179.17969 C 417.20023 174.48969 419.33945 169.80992 420.18945 164.91992 C 421.03945 160.02992 422.49023 155.05016 422.49023 149.91016 L 422.50977 149.91016 C 422.50977 144.77016 422.48937 139.68039 421.60938 134.65039 C 420.72938 129.62039 417.83961 125.18992 416.09961 120.41992 C 414.35961 115.64992 412.00094 111.3507 409.46094 106.9707 C 406.92094 102.5907 404.15016 98.539922 400.91016 94.669922 C 397.67016 90.799922 394.70961 86.669453 390.84961 83.439453 C 386.98961 80.209453 382.90055 77.099844 378.56055 74.589844 C 374.22055 72.079844 368.92047 71.520547 364.23047 69.810547 C 359.54047 68.100547 355.39914 64.030391 350.36914 63.150391 C 349.75789 63.044141 349.14166 62.994199 348.51953 62.990234 z M 327.62891 104.45898 C 330.10516 104.54523 332.64031 104.81055 335.07031 104.81055 C 339.93031 104.81055 345.02055 103.83078 349.56055 105.30078 C 354.10055 106.77078 358.8907 109.05984 362.7207 111.83984 C 366.5507 114.61984 369.71094 118.95023 372.46094 122.74023 C 375.21094 126.53023 376.79094 131.50063 378.21094 135.89062 C 379.63094 140.28063 379.41016 145.05016 379.41016 149.91016 L 379.42969 149.91016 C 379.42969 154.77016 378.63039 159.03008 377.15039 163.58008 C 375.67039 168.13008 373.81906 172.20906 371.03906 176.03906 C 368.25906 179.86906 364.84055 182.91969 361.06055 185.67969 C 357.28055 188.43969 353.81945 192.69914 349.43945 194.11914 C 345.05945 195.53914 339.95008 193.08984 335.08008 193.08984 C 330.21008 193.08984 325.29 195.48 320.75 194 C 316.21 192.52 312.08 189.62984 308.25 186.83984 C 304.42 184.04984 300.59008 180.7607 297.83008 176.9707 C 295.07008 173.1807 292.48055 168.60094 291.06055 164.21094 C 289.64055 159.82094 288.67969 154.78016 288.67969 149.91016 C 288.67969 145.04016 290.19016 140.35078 291.66016 135.80078 C 293.13016 131.25078 295.29984 126.85906 298.08984 123.03906 C 300.87984 119.21906 304.79031 116.18969 308.57031 113.42969 C 312.35031 110.66969 316.14906 106.60969 320.53906 105.17969 C 322.73406 104.46469 325.15266 104.37273 327.62891 104.45898 z "
       style="fill:#db7a1e;fill-opacity:1" />
    <path
       id="path1"
       d="M 117.81055 1.0097656 C 110.11055 1.0097656 110.11039 2.5996094 102.40039 2.5996094 C 94.690391 2.5996094 94.690234 3.2792969 86.990234 3.2792969 C 79.290234 3.2792969 79.280078 3.7890625 71.580078 3.7890625 C 63.880078 3.7890625 62.830703 -1.4694531 57.220703 3.8105469 C 51.930703 8.7805469 56.480469 9.9509375 56.480469 17.210938 C 56.480469 24.470938 57.630859 24.470469 57.630859 31.730469 C 57.630859 38.990469 55.910156 38.990234 55.910156 46.240234 C 55.910156 53.490234 54.820312 53.49 54.820312 60.75 C 54.820313 68.01 57.650391 67.999766 57.650391 75.259766 C 57.650391 82.519766 55.130859 82.509531 55.130859 89.769531 C 55.130859 97.029531 56.730469 97.019297 56.730469 104.2793 C 56.730469 111.5393 57.339844 111.52906 57.339844 118.78906 C 57.339844 126.04906 56.470703 126.04078 56.470703 133.30078 C 56.470703 140.56078 57.140625 140.55055 57.140625 147.81055 C 57.140625 155.07055 55.380859 155.07031 55.380859 162.32031 C 55.380859 169.57031 57.910156 169.57031 57.910156 176.82031 C 57.910156 184.07031 56.269531 184.06031 56.269531 191.32031 C 56.269531 198.58031 57.810547 198.58008 57.810547 205.83008 C 57.810547 213.08008 55.789062 213.08008 55.789062 220.33008 C 55.789062 227.58008 58.039062 227.58008 58.039062 234.83008 C 58.039063 242.08008 51.489531 243.7507 56.769531 248.7207 C 62.389531 254.0107 63.909375 250.0293 71.609375 250.0293 C 79.309375 250.0293 79.319531 248.57031 87.019531 248.57031 C 94.719531 248.57031 98.05 255.86016 103.5 250.41016 C 108.95 244.96016 101.41016 241.62992 101.41016 233.91992 C 101.41016 226.20992 103.60938 226.2 103.60938 218.5 C 103.60937 210.8 102.65039 210.78984 102.65039 203.08984 C 102.65039 195.38984 102.83984 195.38969 102.83984 187.67969 C 102.83984 179.96969 96.129531 176.97047 101.26953 171.23047 C 105.88953 166.08047 109.34 173.41992 116.25 173.41992 C 123.16 173.41992 123.16031 171.76953 130.07031 171.76953 C 136.98031 171.76953 136.97086 171.43945 143.88086 171.43945 C 150.79086 171.43945 152.00961 167.76914 158.09961 171.61914 C 164.18961 175.46914 160.89992 178.71062 164.16992 185.14062 C 167.42992 191.57063 167.2593 191.65008 170.5293 198.08008 C 173.7893 204.50008 175.33937 203.71086 178.60938 210.13086 C 181.87937 216.55086 179.32984 217.83953 182.58984 224.26953 C 185.84984 230.69953 188.80055 229.19914 192.06055 235.61914 C 195.32055 242.03914 191.09938 245.02047 197.10938 248.98047 C 202.52938 252.55047 203.36961 249.56055 209.84961 249.56055 C 216.32961 249.56055 216.34031 250.13086 222.82031 250.13086 C 229.30031 250.13086 229.2993 251.25 235.7793 251.25 C 242.2593 251.25 246.27055 255.36062 249.31055 249.64062 C 252.59055 243.46062 244.10945 243.84938 240.93945 237.60938 C 237.76945 231.36938 237.60945 231.4507 234.43945 225.2207 C 231.26945 218.9907 233.65047 217.78078 230.48047 211.55078 C 227.31047 205.32078 227.09945 205.41945 223.93945 199.18945 C 220.77945 192.95945 221.00008 192.84914 217.83008 186.61914 C 214.66008 180.38914 212.65047 181.41945 209.48047 175.18945 C 206.31047 168.95945 207.13953 168.79937 206.26953 161.85938 C 210.74953 159.43938 212.29023 155.8907 216.24023 152.7207 C 220.19023 149.5507 224.24055 146.64008 227.56055 142.83008 C 230.88055 139.02008 233.47008 134.78969 236.08008 130.42969 C 238.67008 126.10969 240.62086 121.52008 242.38086 116.83008 C 244.14086 112.14008 245.3407 107.29086 246.2207 102.38086 C 247.1007 97.470859 248.30078 92.510234 248.30078 87.490234 C 248.30078 82.470234 247.82094 77.779141 246.96094 72.869141 C 246.10094 67.959141 245.45 63.150234 243.75 58.490234 C 242.05 53.830234 238.31008 50.350313 235.83008 46.070312 C 233.35008 41.790312 232.18977 36.789766 229.00977 33.009766 C 225.82977 29.229766 221.17039 27.099453 217.40039 23.939453 C 213.63039 20.779453 209.72047 18.229531 205.48047 15.769531 C 201.24047 13.309531 197.27945 10.560859 192.68945 8.8808594 C 188.09945 7.2008594 183.53 5.0897656 178.75 4.2597656 C 173.97 3.4297656 169.09031 1.9902344 164.07031 1.9902344 L 164.06055 1.9707031 C 156.36055 1.9707031 156.39922 4.140625 148.69922 4.390625 C 140.99922 4.640625 140.94047 1.6503906 133.23047 1.6503906 C 125.52047 1.6503906 125.51055 1.0097656 117.81055 1.0097656 z M 105.22656 46.126953 C 108.79563 46.174766 112.05734 50.859375 117.83984 50.859375 C 125.54984 50.859375 125.55977 47.689453 133.25977 47.689453 C 140.95977 47.689453 140.96992 48.390625 148.66992 48.390625 C 156.36992 48.390625 156.37008 48 164.08008 48 C 169.30008 48 174.5693 48.839062 179.2793 50.789062 C 183.9893 52.739062 188.7 55.770313 192.25 59.320312 C 195.8 62.870313 198.30922 67.989297 200.19922 72.529297 C 202.08922 77.069297 203.24023 82.270234 203.24023 87.490234 C 203.24023 92.710234 201.64922 97.530234 199.69922 102.24023 C 197.74922 106.95023 196.24922 112.54961 192.69922 116.09961 C 189.14922 119.64961 183.37984 121.22938 178.83984 123.10938 C 174.29984 124.98937 169.30984 127.83008 164.08984 127.83008 C 156.37984 127.83008 156.37992 127.99023 148.66992 127.99023 C 140.95992 127.99023 140.95 127.16016 133.25 127.16016 C 125.55 127.16016 125.54984 126.30078 117.83984 126.30078 C 110.12984 126.30078 108.38945 130.95977 102.93945 125.50977 L 102.96094 125.49023 C 97.510938 120.04023 99.160156 117.80023 100.66016 110.24023 C 102.16016 102.68023 103.28906 102.87969 103.28906 95.179688 C 103.28906 87.479688 103.06055 87.469531 103.06055 79.769531 C 103.06055 72.069531 103.31055 72.069375 103.31055 64.359375 C 103.31055 56.649375 95.999219 53.410703 101.44922 47.970703 C 102.81172 46.610703 104.03687 46.111016 105.22656 46.126953 z "
       style="fill:#db7a1e;fill-opacity:1" />
  </g>
</svg>
