<?xml version="1.0" encoding="UTF-8"?>
<svg id="Camada_2" data-name="Camada 2" xmlns="http://www.w3.org/2000/svg" viewBox="0 0 399.88 335.09">
  <g id="Camada_1-2" data-name="Camada 1">
    <path d="M185.21,99.43l14.39,5.43,10.54,11.14,8.59,12.43,6.65,13.51,4.3,14.51,1.53,15.19-2.18,15.16-3.98,14.96-8.07,11.62-9.67,10.04-9.83,10.07-12.11,7.38-13.48,4.51-13.84.36-.22,14.83,1.84,14.86-.7,14.95-.98,14.96,1.94,14.86.74,14.71-14.06-6.82-14.79-5.7-13.7-7.55.2-15.62-3.26-15.71,2.66-15.91-3.13-15.72-.46-15.3-10.22-6.46-11.09-6.08-11.23-5.82-11.74-2.23-4.74,12.29-7.98,11.83-6.11,12.7-6.57,12.49-5.29,12.26-12.7-4.32-11.87-7.9-14.59-4.2,6-13.74,8.2-11.72,3.47-13.93,5.55-12.96,9.18-11.27,6.29-12.62,4.28-13.56,5.76-12.86,5.13-13.16,6.96-12.31,4.59-13.4,8.21-11.72,4.25-13.57,7.05-12.26,6.98-12.31,5.24-11.59,12.68,2.87,12.74,6.02,12.13,7.34,13.67,4.05,11.73,8.19,12.71,6.01,12.43,6.8ZM87.09,176.4l13.41,4.7,11.58,8.51,12.96,5.57,13.49,4.44,13.09,3.72,14.23-.2,11.06-8.96,6.78-11.69,4.74-12.7-3.88-12.97-5.24-12.55-10.85-8.86-13.84-3.66-11.72-8.21-13.98-3.39-12.43-8.88-7.28,13.17-4.42,13.49-4.19,13.59-5.93,12.79-7.56,12.08ZM380.68,166.71l-12.68-4.36-10.94-8.21-12.31-5.27-12.85-4.14-11.83-6.12-7.72,11.86-4.17,13.6-4.63,13.39-7.41,12.09-4.24,13.57-7.82,11.9-6.64,12.46-3.66,13.84-8.21,11.72-3.39,13.98-8.83,11.43-6.55,12.5-4.27,13.36-13.38-4.18-12.79-5.93-10.57-8.04,3.49-12.68,7.11-12.23,6.49-12.52,5.81-12.84,5.45-13.01,5.33-13.06,5.97-12.77,4.84-13.29,7.01-12.28,6.75-12.41,4.53-13.44,5.44-13.03,5.96-11.34-11.01-6.2-12.3-6.55-13.18-4.67-12.1-6.98-11.99-7.23-13.22-4.58-12.67-5.77-12.55-6.01-13.07-4.89-12.14-6.89-12.33-6.5-13.76-3.41-11.27-8.79-14.26-4.13,5.94-13.58,7.53-12.04,5.86-11.66,11.8,6.54,14.56,3.03,13.35,5.63,12.18,8.14,13.05,6.27,12.83,6.73,13.15,6.04,13.87,4.52,12.22,8.06,14.27,3.65,13.12,6.12,12.08,8.37,14.28,3.63,13.31,5.72,11.62,9.34,12.96,6.45,13.9,4.44,13.22,5.93,13.51,5.29,12.67,7.12,14.48,5.53-8.24,12.81-4.25,13.57-6.7,12.37Z"/>
  </g>
</svg>