<?xml version="1.0" encoding="UTF-8"?>
<svg id="Camada_2" data-name="Camada 2" xmlns="http://www.w3.org/2000/svg" viewBox="0 0 985.28 297.9">
  <g id="Camada_1-2" data-name="Camada 1">
    <path d="M164.07,1.99c5.02,0,9.9,1.44,14.68,2.27s9.35,2.94,13.94,4.62,8.55,4.43,12.79,6.89,8.15,5.01,11.92,8.17,8.43,5.29,11.61,9.07,4.34,8.78,6.82,13.06,6.22,7.76,7.92,12.42,2.35,9.47,3.21,14.38,1.34,9.6,1.34,14.62-1.2,9.98-2.08,14.89-2.08,9.76-3.84,14.45-3.71,9.28-6.3,13.6c-2.61,4.36-5.2,8.59-8.52,12.4s-7.37,6.72-11.32,9.89-5.49,6.72-9.97,9.14c.87,6.94.04,7.1,3.21,13.33s5.18,5.2,8.35,11.43,2.95,6.34,6.11,12.57,3.37,6.13,6.54,12.36.79,7.44,3.96,13.67,3.33,6.15,6.5,12.39,11.65,5.85,8.37,12.03c-3.04,5.72-7.05,1.61-13.53,1.61s-6.48-1.12-12.96-1.12-6.49-.57-12.97-.57-7.32,2.99-12.74-.58c-6.01-3.96-1.79-6.94-5.05-13.36s-6.21-4.92-9.47-11.35-.71-7.72-3.98-14.14-4.82-5.63-8.08-12.05c-3.27-6.43-3.1-6.51-6.36-12.94-3.27-6.43.02-9.67-6.07-13.52s-7.31-.18-14.22-.18-6.9.33-13.81.33-6.91,1.65-13.82,1.65-10.36-7.34-14.98-2.19c-5.14,5.74,1.57,8.74,1.57,16.45s-.19,7.71-.19,15.41.96,7.71.96,15.41-2.2,7.71-2.2,15.42,7.54,11.04,2.09,16.49-8.78-1.84-16.48-1.84-7.71,1.46-15.41,1.46-9.22,3.98-14.84-1.31c-5.28-4.97,1.27-6.64,1.27-13.89s-2.25-7.25-2.25-14.5,2.02-7.25,2.02-14.5-1.54-7.25-1.54-14.51,1.64-7.25,1.64-14.5-2.53-7.25-2.53-14.5,1.76-7.25,1.76-14.51-.67-7.25-.67-14.51.87-7.25.87-14.51-.61-7.25-.61-14.51-1.6-7.25-1.6-14.51,2.52-7.25,2.52-14.51-2.83-7.25-2.83-14.51,1.09-7.26,1.09-14.51,1.72-7.25,1.72-14.51-1.15-7.26-1.15-14.52-4.55-8.43.74-13.4c5.61-5.28,6.66-.02,14.36-.02s7.71-.51,15.41-.51,7.7-.68,15.41-.68,7.71-1.59,15.41-1.59,7.71.64,15.42.64,7.77,2.99,15.47,2.74,7.66-2.42,15.36-2.42ZM102.94,125.51c5.45,5.45,7.19.79,14.9.79s7.71.86,15.41.86,7.71.83,15.42.83,7.71-.16,15.42-.16c5.22,0,10.21-2.84,14.75-4.72s10.31-3.46,13.86-7.01c3.55-3.55,5.05-9.15,7-13.86s3.54-9.53,3.54-14.75-1.15-10.42-3.04-14.96-4.4-9.66-7.95-13.21-8.26-6.58-12.97-8.53-9.98-2.79-15.2-2.79c-7.71,0-7.71.39-15.41.39s-7.71-.7-15.41-.7-7.71,3.17-15.42,3.17-10.94-8.33-16.39-2.89,1.86,8.68,1.86,16.39-.25,7.71-.25,15.41.23,7.71.23,15.41-1.13,7.5-2.63,15.06-3.15,9.8,2.3,15.25ZM422.49,149.91c0,5.14-1.45,10.12-2.3,15.01s-2.99,9.57-4.7,14.26-4.52,8.76-7.03,13.1-5.13,8.34-8.36,12.2-5.45,8.6-9.31,11.84-8.95,4.48-13.34,7.01-7.95,6.33-12.73,8.07-9.68,2.41-14.71,3.29-9.82,1.37-14.95,1.37-9.94-1.18-14.84-2.04-9.73-2.02-14.43-3.72-9.28-3.6-13.62-6.11c-4.38-2.54-8.64-5.05-12.49-8.28s-6.84-7.21-10.08-11.07-8.76-6.23-11.29-10.61-1.71-10.35-3.44-15.12-5.19-8.95-6.07-13.98-1.07-10.07-1.07-15.21.23-10.32,1.09-15.21,4.74-9.14,6.45-13.83,3.6-9.15,6.11-13.5,3.53-9.76,6.77-13.61,6.09-8.49,9.95-11.74,8.83-5.37,13.21-7.9,9.24-4.18,14.02-5.92,9.72-2.4,14.75-3.28,9.85.2,14.99.2,10.41-2.83,15.3-1.98c5.03.88,9.17,4.95,13.86,6.66s9.99,2.27,14.33,4.78,8.43,5.62,12.29,8.85,6.82,7.36,10.06,11.23,6.01,7.92,8.55,12.3,4.9,8.68,6.64,13.45,4.63,9.2,5.51,14.23.9,10.12.9,15.26ZM379.41,149.91c0-4.86.22-9.63-1.2-14.02s-3-9.36-5.75-13.15-5.91-8.12-9.74-10.9-8.62-5.07-13.16-6.54-9.63-.49-14.49-.49-10.14-1.06-14.53.37-8.19,5.49-11.97,8.25-7.69,5.79-10.48,9.61-4.96,8.21-6.43,12.76-2.98,9.24-2.98,14.11.96,9.91,2.38,14.3,4.01,8.97,6.77,12.76,6.59,7.08,10.42,9.87,7.96,5.68,12.5,7.16,9.46-.91,14.33-.91,9.98,2.45,14.36,1.03,7.84-5.68,11.62-8.44,7.2-5.81,9.98-9.64,4.63-7.91,6.11-12.46,2.28-8.81,2.28-13.67ZM475.09,257.74c5.22,5.04,6.75.8,14,.8s7.26.86,14.51.86,7.26.83,14.51.83,7.26-.16,14.51-.16,7.26-1.8,14.51-1.8,7.26,1.92,14.51,1.92,7.26-1.93,14.51-1.93,7.26.62,14.51.62,7.26-.07,14.51-.07,7.26.76,14.51.76,7.26-.13,14.51-.13,7.26-.23,14.51-.23,7.26-.39,14.51-.39,7.26.7,14.51.7,7.26-3.17,14.51-3.17,7.26,3.29,14.51,3.29,7.26-2.26,14.51-2.26,7.26.25,14.51.25,7.26-.23,14.51-.23,7.25,2.67,14.51,2.67,7.26-.18,14.51-.18,7.26-2.28,14.51-2.28,7.26-1.27,14.51-1.27,7.26,1.12,14.51,1.12,7.26.57,14.51.57,7.26.65,14.52.65,7.26,1.5,14.51,1.5,7.26-3.3,14.52-3.3,7.26,2.86,14.52,2.86,7.26-1.74,14.52-1.74,7.26.19,14.51.19,7.26.82,14.52.82,7.26.07,14.51.07,7.26-.33,14.52-.33,9.74-6.08,15.27-1.38c4.71,4-2.3,7.06-2.3,13.23s1.97,6.18,1.97,12.36,4.44,8.53-.27,12.53c-5.54,4.71-7.41,1.02-14.68,1.02s-7.27-2.2-14.54-2.2-7.27,2.53-14.54,2.53-7.27-2.29-14.54-2.29-7.27,1.46-14.54,1.46-7.27-1.54-14.54-1.54-7.27-1.01-14.54-1.01-7.27,2.25-14.54,2.25-7.27-2.02-14.54-2.02-7.27,1.54-14.54,1.54-7.27-1.64-14.54-1.64c-7.27,0-7.27,2.53-14.54,2.53s-7.27-1.76-14.54-1.76-7.27.67-14.54.67c-7.27,0-7.27-.87-14.54-.87s-7.27.61-14.54.61-7.27,1.6-14.54,1.6-7.27-2.52-14.54-2.52-7.27,2.83-14.54,2.83-7.27-1.09-14.54-1.09-7.27-1.72-14.54-1.72-7.27,1.15-14.54,1.15-7.27-1.22-14.54-1.22-7.27.44-14.54.44-7.27.51-14.54.51-7.27.68-14.54.68-7.27,1.59-14.54,1.59c-7.27,0-7.27-.64-14.54-.64s-7.27-2.75-14.55-2.75-7.27,3.19-14.54,3.19-7.27-3.17-14.55-3.17-7.27,3.46-14.55,3.46-7.27-.24-14.55-.24-7.27-.14-14.54-.14-7.27-1.52-14.55-1.52-7.27,1.88-14.54,1.88-7.28-2.3-14.55-2.3-9.65,5.92-14.79.77-1.64-7.52-1.64-14.8.24-7.28.24-14.56,2.79-7.28,2.79-14.57-1.08-7.28-1.08-14.56-1.42-7.28-1.42-14.56,2.82-7.28,2.82-14.57-.42-7.28-.42-14.57-1.68-7.28-1.68-14.57.51-7.28.51-14.57,2.02-7.28,2.02-14.57-1.97-7.28-1.97-14.57-1.46-7.28-1.46-14.57,1.61-7.29,1.61-14.57-1.89-7.28-1.89-14.57,2.06-7.29,2.06-14.58-4.75-8.76.45-13.86,6.74-2.24,14.18-2.24,7.45,2.49,14.89,2.49,10.75-7.43,16.18-2.33c5.1,4.79-2.59,8.36-2.59,15.36s-.66,7-.66,14,1.69,7,1.69,14,1.94,7,1.94,14,.03,7,.03,14-3.29,7-3.29,14,2.65,7,2.65,14-1.27,7-1.27,14-.59,7-.59,14,.16,7,.16,14,.56,7,.56,14,.69,7,.69,14,1.35,7.26-.03,14.12-5.11,8.5-.08,13.36ZM47.08,257.73c5.56,5.14,7.07.81,14.64.81s7.57.86,15.14.86,7.57.83,15.14.83,7.57-.16,15.14-.16,7.57-1.8,15.14-1.8,7.57,1.92,15.15,1.92,9.28-6.72,15.14-1.93c4.79,3.9-.62,6.17-.62,12.35s.07,6.18.07,12.36,4.5,7.43-.28,11.35c-5.82,4.78-6.71-.17-14.24-.17s-7.53.23-15.06.23-7.53.39-15.06.39-7.53-.7-15.07-.7-7.53,3.17-15.07,3.17-7.53-3.29-15.06-3.29-7.53,2.26-15.07,2.26c-7.53,0-7.53-.25-15.07-.25s-7.54.23-15.07.23-8.49,3.24-13.78-2.13c-5.37-5.45.35-6.37.35-14.02s-2.28-7.65-2.28-15.3S0,257.1,0,249.46s1.12-7.65,1.12-15.3.57-7.65.57-15.3.65-7.65.65-15.3-4.38-8.48.95-13.96,6.07-2.72,13.51-2.72,7.45,2.86,14.89,2.86,9.64-6.77,15.07-1.67c5.1,4.79-.11,7.19-.11,14.18s-.82,7-.82,14-.07,7-.07,14,1.74,7.04.34,13.91-4.16,8.81.98,13.57ZM668.86,167.94c-6.6,2.43-7.28-.96-14.32-.96s-7.03-.86-14.06-.86-7.03-.83-14.06-.83-7.03.16-14.07.16-7.03,1.8-14.06,1.8-7.03-1.92-14.07-1.92-7.03,1.93-14.06,1.93-7.04-.62-14.07-.62-7.57-2.12-14.25.1c1.72,4.12,3.19,9.27,5.99,12.66s6.46,6.55,10.15,9.01,8.04,4.28,12.32,5.57c4.14,1.25,8.8,1.57,13.34,1.57,4.14,0,8.49.1,12.3-.95s6.36-5.54,9.8-7.59,7.85-1.61,10.64-4.52c7.97-1.22,7.85-2.25,15.92-2.25s8.06.25,16.13.25,8.72-2.68,16.39-.18c-1.8,4.66-5.81,9.01-8.36,13.24s-5.17,8.17-8.41,11.92-5.16,8.8-9,11.96-7.39,7.13-11.72,9.59-9.49,3.6-14.2,5.29-9.66,2.41-14.62,3.26-9.81.62-14.86.62-9.84-1.92-14.73-2.77-10.71.99-15.41-.71-8.14-6.47-12.48-8.98-9.43-3.96-13.28-7.2c-3.86-3.25-7.33-6.98-10.57-10.84s-5.44-8.41-7.97-12.8-4.54-8.82-6.28-13.6-3.31-9.38-4.19-14.41-2.95-9.84-2.95-14.97,3.13-9.9,3.99-14.79.28-10.32,1.99-15.01,4.08-9.33,6.59-13.67,4.73-9.17,7.97-13.03,8.39-5.9,12.25-9.15,6.58-8.24,10.96-10.77,9.94-2.62,14.72-4.36,9.19-4.43,14.22-5.31,10.04.22,15.18.22,9.85,1.43,14.74,2.28,10.37,0,15.06,1.71,8.41,5.66,12.75,8.17,9.28,4.1,13.13,7.34,6.17,7.87,9.42,11.73c3.24,3.85,8.16,6.48,10.69,10.86s3.06,9.65,4.8,14.42,3.64,9.29,4.52,14.32.42,9.87.42,15.01c0,5.94.82,12.42-.32,18.03ZM625.03,131.88c-1.72-4.12-3.58-7.4-6.38-10.79s-5.69-7.17-9.38-9.63-7.72-5.29-12-6.58-9.09-1.85-13.64-1.85-8.94,2.47-13.07,3.72-9.37,1.62-13.01,4.05-5.91,7.06-8.72,10.47-5.3,7.79-7.02,11.9c6.57,2.22,7.13-.04,14.07-.04s6.94.76,13.87.76,6.94-.13,13.88-.13,6.94-.23,13.87-.23,6.92-.9,13.84-.39,7.11.98,13.69-1.25ZM983.11,49.47c-5.1,5.33-7.9-.78-15.27-.78s-7.37-.86-14.75-.86-7.37-.83-14.74-.83-7.37.16-14.75.16-7.37,1.8-14.74,1.8-7.37-1.92-14.74-1.92-7.37,1.93-14.75,1.93-7.37-.62-14.75-.62-7.37.07-14.75.07-7.37-.76-14.75-.76-7.37.13-14.75.13-7.37.23-14.75.23-7.37.39-14.74.39-7.38-.7-14.75-.7-7.37,3.17-14.75,3.17-7.38-3.29-14.76-3.29-8.85-3.12-14.15,2.01c-5.14,4.98.02,6.53.02,13.68s.23,7.15.23,14.31-2.67,7.15-2.67,14.31.18,7.16.18,14.31,2.28,7.16,2.28,14.31,1.27,7.16,1.27,14.31-1.12,7.16-1.12,14.31-.57,7.16-.57,14.31-.65,7.16-.65,14.31-1.5,7.16-1.5,14.31,3.3,7.16,3.3,14.32-2.86,7.16-2.86,14.31,1.74,7.16,1.74,14.32,5.03,9.49-.21,14.37c-5.65,5.25-7.75-.81-15.46-.81s-7.71-.07-15.41-.07-9.43,5.7-15.08.46c-5.24-4.87-1.49-6.79-1.49-13.95s2.71-7.15,2.71-14.31-1.97-7.15-1.97-14.31.19-7.16.19-14.31-.96-7.16-.96-14.31,2.2-7.16,2.2-14.31-2.53-7.16-2.53-14.31,2.29-7.16,2.29-14.31-1.46-7.16-1.46-14.31,1.54-7.16,1.54-14.31,1.01-7.16,1.01-14.32-2.25-7.16-2.25-14.31,2.02-7.16,2.02-14.32,3.55-9.37-1.56-14.38-7.37-1.67-14.68-1.67-7.31,2.53-14.62,2.53-7.31-1.76-14.62-1.76-7.31.67-14.62.67-7.31-.87-14.62-.87-7.31.61-14.62.61-7.31,1.6-14.62,1.6-7.31-2.52-14.62-2.52-7.31,2.83-14.62,2.83-7.31-1.09-14.62-1.09-7.31-1.72-14.62-1.72-7.31,1.15-14.62,1.15-7.31-1.22-14.62-1.22-7.31.44-14.62.44-7.31.51-14.62.51-7.31.68-14.62.68-7.31,1.59-14.62,1.59-7.31-.64-14.62-.64-7.31-2.75-14.62-2.75-7.31,3.19-14.62,3.19-7.31-3.17-14.62-3.17-7.31,3.46-14.62,3.46-7.31-.24-14.62-.24-7.31-.14-14.63-.14-7.31-1.52-14.62-1.52-7.31,1.88-14.63,1.88-7.31-2.3-14.62-2.3-7.32.87-14.63.87-10.96,6.26-16,.96c-5.31-5.59-.28-9-.28-16.71s2.79-7.71,2.79-15.41-6.36-9.74-1.1-15.37c4.92-5.26,7.15-1.4,14.36-1.4s7.21,2.82,14.41,2.82,7.21-.42,14.42-.42,7.21-1.68,14.42-1.68,7.21.51,14.41.51,7.21,2.02,14.42,2.02,7.21-1.97,14.42-1.97,7.21-1.46,14.42-1.46,7.21,1.61,14.42,1.61,7.21-1.89,14.42-1.89,7.21,2.06,14.42,2.06,7.21.75,14.42.75,7.21-2.53,14.42-2.53,7.21,2.49,14.42,2.49,7.21-2.83,14.42-2.83,7.21,3.18,14.42,3.18,7.21.66,14.42.66,7.21-1.69,14.42-1.69,7.21-1.94,14.42-1.94,7.21-.03,14.42-.03,7.21,3.29,14.42,3.29,7.21-2.65,14.42-2.65,7.21,1.27,14.42,1.27,7.21.59,14.42.59,7.21-.16,14.42-.16,7.21-.56,14.42-.56,7.21-.69,14.42-.69,7.21.02,14.42.02,7.21-1.23,14.42-1.23,7.21,1.16,14.42,1.16,7.21.87,14.42.87,7.21-1.57,14.42-1.57,7.21-.58,14.42-.58,7.21.08,14.42.08,7.21,1.52,14.42,1.52,7.21.74,14.42.74,7.21-1.33,14.42-1.33,7.21,1.21,14.42,1.21,7.21,1.49,14.42,1.49,7.21-1.43,14.42-1.43,7.21-.12,14.42-.12,7.21.15,14.42.15,7.21-1.08,14.42-1.08,7.21,1.11,14.42,1.11,7.21.68,14.43.68,7.21-2.72,14.42-2.72,7.21,3.2,14.43,3.2,7.21-2.59,14.42-2.59,7.22-.06,14.43-.06,9.03-3.73,13.96,1.54c5.27,5.63-1,7.27-1,14.98s-2.19,8.34-.48,15.86c1.88,8.27,7.8,9.91,2.48,15.48ZM917.37,167.94c-6.6,2.43-7.28-.96-14.32-.96s-7.03-.86-14.06-.86-7.03-.83-14.06-.83-7.03.16-14.07.16-7.03,1.8-14.06,1.8-7.03-1.92-14.07-1.92-7.03,1.93-14.06,1.93-7.04-.62-14.07-.62-7.57-2.12-14.25.1c1.72,4.12,3.19,9.27,5.99,12.66s6.46,6.55,10.15,9.01,8.04,4.28,12.32,5.57,8.8,1.57,13.34,1.57c4.14,0,8.49.1,12.3-.95s6.36-5.54,9.8-7.59,7.85-1.61,10.64-4.52c7.97-1.22,7.85-2.25,15.92-2.25s8.06.25,16.13.25,8.72-2.68,16.39-.18c-1.8,4.66-5.81,9.01-8.36,13.24s-5.17,8.17-8.41,11.92-5.16,8.8-9,11.96-7.39,7.13-11.72,9.59-9.49,3.6-14.2,5.29-9.66,2.41-14.62,3.26c-4.82.83-9.81.62-14.86.62s-9.84-1.92-14.73-2.77-10.71.99-15.41-.71-8.14-6.47-12.48-8.98-9.43-3.96-13.28-7.2-7.33-6.98-10.57-10.84-5.44-8.41-7.97-12.8-4.54-8.82-6.28-13.6-3.31-9.38-4.19-14.41-2.95-9.84-2.95-14.97,3.13-9.9,3.99-14.79.28-10.32,1.99-15.01,4.08-9.33,6.59-13.67,4.73-9.17,7.97-13.03c3.25-3.86,8.39-5.9,12.25-9.15s6.58-8.24,10.96-10.77,9.94-2.62,14.72-4.36,9.19-4.43,14.22-5.31c4.89-.86,10.04.22,15.18.22s9.85,1.43,14.74,2.28,10.37,0,15.06,1.71c4.77,1.74,8.41,5.66,12.75,8.17s9.28,4.1,13.13,7.34,6.17,7.87,9.42,11.73,8.16,6.48,10.69,10.86,3.06,9.65,4.8,14.42c1.71,4.69,3.64,9.29,4.52,14.32.86,4.89.42,9.87.42,15.01,0,5.94.82,12.42-.32,18.03ZM873.54,131.88c-1.72-4.12-3.58-7.4-6.38-10.79s-5.69-7.17-9.38-9.63-7.72-5.29-12-6.58-9.09-1.85-13.64-1.85-8.94,2.47-13.07,3.72-9.37,1.62-13.01,4.05-5.91,7.06-8.72,10.47-5.3,7.79-7.02,11.9c6.57,2.22,7.13-.04,14.07-.04s6.94.76,13.87.76,6.94-.13,13.88-.13,6.94-.23,13.87-.23,6.92-.9,13.84-.39c6.89.5,7.11.98,13.69-1.25ZM936.03,109.53c-5.45-5.45.79-8.22.79-15.93s.86-7.71.86-15.41-5.19-8.57.26-14.02,6.32.42,14.02.42,7.71-1.8,15.41-1.8,8.6-4.09,14.05,1.36,1.36,6.34,1.36,14.05-.62,7.71-.62,15.41,5.68,9.58.23,15.03-7.32-.92-15.02-.92-8.17-1.57-15.68.16c-8.29,1.91-10.22,7.11-15.67,1.66ZM936.06,249.94c-5.12-4.54.76-7.39.76-14.23s.86-6.84.86-13.68.83-6.84.83-13.68-.16-6.84-.16-13.68-1.8-6.84-1.8-13.68,1.92-6.84,1.92-13.68-1.93-6.84-1.93-13.68.62-6.84.62-13.69-5.37-8.73-.26-13.28c5.76-5.12,7.34.89,15.05.89s7.71-.13,15.41-.13,9.02-5.58,14.78-.47c5.12,4.54.07,6.13.07,12.97s-.7,6.84-.7,13.68,3.17,6.84,3.17,13.68-3.29,6.84-3.29,13.68,2.26,6.84,2.26,13.68-.25,6.84-.25,13.68.23,6.84.23,13.68-2.67,6.84-2.67,13.69,5.84,7.92.73,12.46c-5.76,5.12-6.62,1.87-14.32,1.87s-7.48-.44-15,1.22c-8.23,1.83-10.55,3.8-16.31-1.32Z"/>
  </g>
</svg>